<svg xmlns="http://www.w3.org/2000/svg" width="25.396" height="20.667" viewBox="0 0 25.396 20.667">
  <g id="Group_149" data-name="Group 149" transform="translate(-198.936 -513)">
    <path id="Union_1" data-name="Union 1" d="M5.273,18.924a21.638,21.638,0,0,1-.786-3.367H2a2,2,0,0,1-2-2V2A2,2,0,0,1,2,0H22.4a2,2,0,0,1,2,2V13.558a2,2,0,0,1-2,2H9.947c-1.368,2.113-2.921,4.109-3.9,4.109C5.712,19.667,5.447,19.443,5.273,18.924Z" transform="translate(199.436 513.5)" fill="#fff" stroke="#707070" stroke-width="1"/>
    <path id="Path_272" data-name="Path 272" d="M65.018-4307.725H80.278" transform="translate(139.014 4825.388)" fill="none" stroke="#707070" stroke-width="0.7"/>
    <path id="Path_273" data-name="Path 273" d="M65.018-4307.725H80.278" transform="translate(139.014 4828.923)" fill="none" stroke="#707070" stroke-width="0.7"/>
    <path id="Path_274" data-name="Path 274" d="M65.018-4307.725H80.278" transform="translate(139.014 4832.459)" fill="none" stroke="#707070" stroke-width="0.7"/>
  </g>
</svg>
