<svg xmlns="http://www.w3.org/2000/svg" width="16" height="20" viewBox="0 0 24.967 28.177">
  <g id="noun_bag_1740356_1_" data-name="noun_bag_1740356 (1)" transform="translate(0)">
    <g id="Group_1" data-name="Group 1" transform="translate(0 0)">
      <path id="Path_1" data-name="Path 1" d="M23.5,958.362a5.852,5.852,0,0,0-5.683,6.014v.6H16.246a3.755,3.755,0,0,0-3.6,3.392l-1.611,14.679a3.03,3.03,0,0,0,2.942,3.492H33.016a3.03,3.03,0,0,0,2.942-3.492l-1.611-14.679a3.764,3.764,0,0,0-3.612-3.392H29.174v-.6A5.844,5.844,0,0,0,23.5,958.362Zm0,.83a5,5,0,0,1,4.843,5.183v.6h-9.7v-.6A5.009,5.009,0,0,1,23.5,959.193Zm-7.254,6.614h1.571v2.5a1.284,1.284,0,0,0-.8,1.2,1.213,1.213,0,1,0,2.421,0,1.288,1.288,0,0,0-.79-1.2v-2.5h9.7v2.5a1.288,1.288,0,0,0-.79,1.2,1.213,1.213,0,1,0,2.421,0,1.284,1.284,0,0,0-.8-1.2v-2.5h1.561a2.974,2.974,0,0,1,2.792,2.652l1.611,14.679a2.154,2.154,0,0,1-2.121,2.572H13.975a2.154,2.154,0,0,1-2.121-2.572l1.621-14.679A2.954,2.954,0,0,1,16.246,965.806Z" transform="translate(-11.012 -958.362)"/>
    </g>
  </g>
</svg>
