<svg xmlns="http://www.w3.org/2000/svg" width="29.74" height="35.093" viewBox="0 0 29.74 35.093">
  <g id="Group_48" data-name="Group 48" transform="translate(-323.044 -510.865)">
    <path id="Rectangle_93" data-name="Rectangle 93" d="M0,0H29.74a0,0,0,0,1,0,0V33.093a2,2,0,0,1-2,2H2a2,2,0,0,1-2-2V0A0,0,0,0,1,0,0Z" transform="translate(323.044 510.865)" fill="#1c1c1c"/>
    <g id="noun_scissor_1451220" transform="translate(330.531 516.344)">
      <g id="Group_31" data-name="Group 31" transform="translate(0 0)">
        <path id="Path_52" data-name="Path 52" d="M430.105,17.571l5.074-9.128A8.1,8.1,0,0,0,436.087,3L429,15.671Z" transform="translate(-421.475 -3)" fill="#fafafa" stroke="#fff" stroke-width="1"/>
        <path id="Path_53" data-name="Path 53" d="M178.7,24.2c-.2,2.381-.964,3.288-2.835,2.154-1.474-.879-3.4-4.2-3.09-5.925l-.822-1.474a.636.636,0,0,0-.6-.17.543.543,0,0,1-.68-.2l-5.67-10.149A8.273,8.273,0,0,1,164.1,3l9.241,16.527c1.049-.567,3.062.51,3.855,1.191A4.194,4.194,0,0,1,178.7,24.2Zm-7.512-6.633.34.482a.258.258,0,0,0,.113-.227.291.291,0,0,0-.283-.312A.239.239,0,0,0,171.191,17.571Zm.283.51-.34-.454a.221.221,0,0,0-.085.2.291.291,0,0,0,.312.283A.17.17,0,0,0,171.475,18.081Zm2.353,2.3c-.794,1.191,1.361,4.536,2.41,5.188,1.276.794,1.474.085,1.587-1.389a3.313,3.313,0,0,0-1.134-2.721C176.237,21.029,174.338,19.9,173.828,20.377Z" transform="translate(-163.979 -3)" fill="#fafafa" stroke="#fff" stroke-width="1"/>
        <path id="Path_54" data-name="Path 54" d="M163.577,543.066c.2,2.381.936,3.288,2.835,2.154,1.446-.879,3.4-4.2,3.062-5.925l.765-1.332L169.7,537l-.794,1.389c-1.021-.567-3.033.51-3.827,1.191A4.2,4.2,0,0,0,163.577,543.066Zm4.9-3.827c.794,1.191-1.389,4.536-2.438,5.188-1.276.794-1.446.085-1.587-1.389a3.335,3.335,0,0,1,1.162-2.721C166.043,539.891,167.942,538.758,168.481,539.239Z" transform="translate(-163.564 -521.862)" fill="#fafafa" stroke="#fff" stroke-width="1"/>
      </g>
    </g>
  </g>
</svg>
