<svg xmlns="http://www.w3.org/2000/svg" width="25.418" height="32.91" viewBox="0 0 25.418 32.91">
  <g id="noun_Tailor_318564" transform="translate(-16.791 -5.019)">
    <path id="Path_90" data-name="Path 90" d="M31.826,56.835a1.724,1.724,0,0,0-.015,2.428l.1.1a1.724,1.724,0,0,0,2.427-.015L50.806,40.364Zm1.983,1.751a.819.819,0,0,1-1.158,0l-.008-.008a.819.819,0,0,1,0-1.158l1.145-.97a.678.678,0,0,1,.954.029l.008.008a.651.651,0,0,1,.043.968Z" transform="translate(-8.975 -22.423)" fill="none" stroke="#707070" stroke-width="1"/>
    <path id="Path_91" data-name="Path 91" d="M25.9,29.928l8.8-7.639c-1.021-1.688-2.021-2.936-2.021-4.176,0-2.29,1.392-4.008,1.392-6.87,0,.573,2.088,2.147,2.088,2.147l2.088-1.145A19.951,19.951,0,0,0,36.86,8.381a5.059,5.059,0,0,0-2.784-2.29,8.213,8.213,0,0,0-2.784-.573s-.482,2.147-3.48,2.147-3.48-2.147-3.48-2.147a8.212,8.212,0,0,0-2.784.573,5.055,5.055,0,0,0-2.784,2.29,19.9,19.9,0,0,0-1.393,3.864L19.46,13.39s2.088-1.575,2.088-2.147c0,2.862,1.392,4.58,1.392,6.87,0,2.466-4.176,5.1-4.176,11.4A41.626,41.626,0,0,0,25.9,29.928Z" fill="none" stroke="#707070" stroke-width="1"/>
    <path id="Path_92" data-name="Path 92" d="M62.654,67.539A16.575,16.575,0,0,0,66,67.212a12.843,12.843,0,0,0-.369-3.1Z" transform="translate(-29.139 -37.704)" fill="none" stroke="#707070" stroke-width="1"/>
  </g>
</svg>
