<svg xmlns="http://www.w3.org/2000/svg" width="28.055" height="26.023" viewBox="0 0 28.055 26.023"><g transform="translate(-19 -20.4)"><g transform="translate(19 20.4)"><path d="M43.477,65.6a3.177,3.177,0,1,0,3.22,3.22A3.241,3.241,0,0,0,43.477,65.6Zm0,4.221a1,1,0,1,1,1-1A.985.985,0,0,1,43.477,69.821Z" transform="translate(-31.031 -45.931)" fill="#fff"/><path d="M61.377,65.6a3.177,3.177,0,1,0,3.177,3.177A3.195,3.195,0,0,0,61.377,65.6Zm0,4.221a1,1,0,1,1,1-1A.985.985,0,0,1,61.377,69.821Z" transform="translate(-41.142 -45.931)" fill="#fff"/><path d="M46.851,27.813a1.058,1.058,0,0,0-.87-.479H42.064a1.088,1.088,0,1,0,0,2.176h2.35L41.28,38.431H29.4L25.919,29.51h3.742a1.088,1.088,0,0,0,0-2.176H25.049L23.7,23.9a1.073,1.073,0,0,0-1-.7H19v2.176h2.959l1.349,3.438h0l4.352,11.1a1.073,1.073,0,0,0,1,.7h13.4a1.128,1.128,0,0,0,1.044-.74l3.873-11.1A.953.953,0,0,0,46.851,27.813Z" transform="translate(-19 -21.982)" fill="#fff"/><path d="M52.311,26.971l1.523,1.523,3.22-3.22a1.051,1.051,0,0,0,0-1.523L53.7,20.4,52.18,21.967,53.616,23.4H49.7v2.176h4.047Z" transform="translate(-36.34 -20.4)" fill="#fff"/></g></g></svg>