<svg id="Delete" xmlns="http://www.w3.org/2000/svg" width="19" height="19" viewBox="0 0 19 19">
  <g id="Group_180" data-name="Group 180" transform="translate(-3 -3)">
    <path id="Path_343" data-name="Path 343" d="M8.5,10a.5.5,0,0,0-.5.5v8a.5.5,0,0,0,1,0v-8A.5.5,0,0,0,8.5,10Z"/>
    <path id="Path_344" data-name="Path 344" d="M16.5,10a.5.5,0,0,0-.5.5v8a.5.5,0,0,0,1,0v-8A.5.5,0,0,0,16.5,10Z"/>
    <path id="Path_345" data-name="Path 345" d="M12.5,8a.5.5,0,0,0-.5.5v10a.5.5,0,0,0,1,0V8.5A.5.5,0,0,0,12.5,8Z"/>
    <path id="Path_346" data-name="Path 346" d="M21.5,5H17V4.5A1.5,1.5,0,0,0,15.5,3h-6A1.5,1.5,0,0,0,8,4.5V5H3.5a.5.5,0,0,0,0,1H5V20.5A1.5,1.5,0,0,0,6.5,22h12A1.5,1.5,0,0,0,20,20.5V6h1.5a.5.5,0,0,0,0-1ZM9,4.5A.5.5,0,0,1,9.5,4h6a.5.5,0,0,1,.5.5V5H9Zm10,16a.5.5,0,0,1-.5.5H6.5a.5.5,0,0,1-.5-.5V6H19Z"/>
  </g>
</svg>
