<svg xmlns="http://www.w3.org/2000/svg" width="14" height="20" viewBox="0 0 17.367 32.123"><g transform="translate(-22.077)"><path d="M38.79.007,34.625,0c-4.68,0-7.7,3.1-7.7,7.906V11.55H22.732a.655.655,0,0,0-.655.655v5.281a.655.655,0,0,0,.655.655H26.92V31.468a.655.655,0,0,0,.655.655H33.04a.655.655,0,0,0,.655-.655V18.142h4.9a.655.655,0,0,0,.655-.655l0-5.281a.655.655,0,0,0-.655-.655h-4.9V8.461c0-1.485.354-2.239,2.289-2.239H38.79a.655.655,0,0,0,.655-.655V.662A.655.655,0,0,0,38.79.007Z" fill="#fff4f4"/></g></svg>