<svg xmlns="http://www.w3.org/2000/svg" width="13.484" height="13.484" viewBox="0 0 13.484 13.484">
  <g id="Inches" transform="translate(-570.756 -895.373) rotate(45)">
    <rect id="Rectangle_381" data-name="Rectangle 381" width="4.214" height="13.17" transform="translate(1043.942 222.844)"/>
    <g id="noun_Scale_2218686" transform="translate(1043.878 236.408) rotate(-90)">
      <path id="Path_276" data-name="Path 276" d="M13.543,0H.193A.193.193,0,0,0,0,.193V4.54a.193.193,0,0,0,.193.193h13.35a.193.193,0,0,0,.193-.193V.193A.193.193,0,0,0,13.543,0ZM13.35,4.347H.386V.386H1.759V1.5a.193.193,0,1,0,.386,0V.386H2.76V2.815a.193.193,0,1,0,.386,0V.386h.821V1.5a.193.193,0,1,0,.386,0V.386h.614V2.815a.193.193,0,1,0,.386,0V.386h.821V1.5a.193.193,0,1,0,.386,0V.386h.614V2.815a.193.193,0,1,0,.386,0V.386h.821V1.5a.193.193,0,1,0,.386,0V.386h.614V2.815a.193.193,0,1,0,.386,0V.386h.821V1.5a.193.193,0,1,0,.386,0V.386h.614V2.815a.193.193,0,1,0,.386,0V.386H13.35Z" transform="translate(0 0)" fill="#fff" stroke="#fff" stroke-width="0.3"/>
    </g>
  </g>
</svg>
