<svg xmlns="http://www.w3.org/2000/svg" width="20" height="20" viewBox="0 0 30 30"><path d="M20.625,0H9.375A9.376,9.376,0,0,0,0,9.375v11.25A9.376,9.376,0,0,0,9.375,30h11.25A9.376,9.376,0,0,0,30,20.625V9.375A9.376,9.376,0,0,0,20.625,0Zm6.563,20.625a6.57,6.57,0,0,1-6.562,6.563H9.375a6.57,6.57,0,0,1-6.562-6.562V9.375A6.57,6.57,0,0,1,9.375,2.813h11.25a6.57,6.57,0,0,1,6.563,6.563Z" fill="#fff4f4"/><g transform="translate(7.5 7.5)"><path d="M135.5,128a7.5,7.5,0,1,0,7.5,7.5A7.5,7.5,0,0,0,135.5,128Zm0,12.188a4.688,4.688,0,1,1,4.688-4.687A4.694,4.694,0,0,1,135.5,140.188Z" transform="translate(-128 -128)" fill="#fff4f4"/></g><g transform="translate(22.063 5.938)"><circle cx="0.999" cy="0.999" r="0.999" fill="#fff4f4"/></g></svg>