<svg xmlns="http://www.w3.org/2000/svg" width="13.912" height="15.567" viewBox="0 0 13.912 15.567"><g transform="translate(0.502 0.5)"><g transform="translate(0 0)"><path d="M17.468,958.362a3.025,3.025,0,0,0-2.938,3.109v.31h-.812a1.941,1.941,0,0,0-1.862,1.754l-.833,7.589a1.566,1.566,0,0,0,1.521,1.805h9.844a1.566,1.566,0,0,0,1.521-1.805l-.833-7.589a1.946,1.946,0,0,0-1.867-1.754H20.4v-.31A3.021,3.021,0,0,0,17.468,958.362Zm0,.429a2.585,2.585,0,0,1,2.5,2.68v.31H14.959v-.31A2.589,2.589,0,0,1,17.468,958.791Zm-3.75,3.419h.812V963.5a.664.664,0,0,0-.414.621.627.627,0,1,0,1.252,0,.666.666,0,0,0-.409-.621v-1.293h5.013V963.5a.666.666,0,0,0-.409.621.627.627,0,1,0,1.252,0,.664.664,0,0,0-.414-.621v-1.293h.807a1.537,1.537,0,0,1,1.443,1.371l.833,7.589a1.114,1.114,0,0,1-1.1,1.329H12.543a1.114,1.114,0,0,1-1.1-1.329l.838-7.589A1.527,1.527,0,0,1,13.718,962.211Z" transform="translate(-11.012 -958.362)" stroke="#000" stroke-width="1"/></g></g></svg>