<svg xmlns="http://www.w3.org/2000/svg" width="23.706" height="16.723" viewBox="0 0 23.706 16.723">
  <g id="My_truck" data-name="My truck" transform="translate(0 0.313)">
    <path id="Path_445" data-name="Path 445" d="M23.945,30.569H22.577a2.977,2.977,0,0,1-2.851,2.14,2.943,2.943,0,0,1-2.853-2.14H9.734a2.977,2.977,0,0,1-2.865,2.14,2.943,2.943,0,0,1-2.853-2.14H2.44a1.1,1.1,0,0,1-1.1-1.1V17.405A1.105,1.105,0,0,1,2.445,16.3H12.712a1.105,1.105,0,0,1,1.105,1.105v8.623a.514.514,0,1,0,1.027,0V18.635a.767.767,0,0,1,.767-.767H20.5a1.186,1.186,0,0,1,1.008.55L24.743,23.5a1.948,1.948,0,0,1,.3,1.04v4.925a1.1,1.1,0,0,1-1.1,1.1ZM6.869,28.249a1.509,1.509,0,0,0-1.485,1.488,1.485,1.485,0,1,0,1.485-1.488Zm12.857,2.973a1.509,1.509,0,0,0,1.485-1.485,1.49,1.49,0,0,0-1.485-1.488,1.509,1.509,0,0,0-1.485,1.488A1.49,1.49,0,0,0,19.726,31.221Zm2.921-7.832L20.361,19.8a.273.273,0,0,0-.229-.127H18.068a.273.273,0,0,0-.273.273v3.589a.273.273,0,0,0,.273.278h4.355a.273.273,0,0,0,.229-.419Z" transform="translate(-1.34 -16.3)" fill="#fff"/>
    <path id="Path_446" data-name="Path 446" d="M-4168.563-6929.806v-2.463H-4169" transform="translate(4183.661 6932.455)" fill="none" stroke="#fff" stroke-linecap="round" stroke-width="1"/>
  </g>
</svg>
