<svg xmlns="http://www.w3.org/2000/svg" width="17.491" height="11.4" viewBox="0 0 17.491 11.4">
  <g id="noun_View_1339350" transform="translate(-1.45 -16.7)">
    <g id="Group_227" data-name="Group 227" transform="translate(1.45 16.7)">
      <path id="Path_462" data-name="Path 462" d="M18.718,21.73h0c-.953-1.182-4.359-5.03-8.524-5.03s-7.571,3.83-8.506,5.012a1.088,1.088,0,0,0,0,1.359c.953,1.182,4.359,5.03,8.506,5.03,4.165,0,7.571-3.83,8.506-5.012A1.113,1.113,0,0,0,18.718,21.73ZM10.194,18.2c3.265,0,6.177,3.071,7.13,4.2-.935,1.129-3.847,4.2-7.13,4.2-3.141,0-5.965-2.859-7.13-4.2C3.841,21.483,6.806,18.2,10.194,18.2Z" transform="translate(-1.45 -16.7)" fill="#494949"/>
      <path id="Path_463" data-name="Path 463" d="M34.365,35.93A3.565,3.565,0,1,0,30.8,32.365,3.578,3.578,0,0,0,34.365,35.93Z" transform="translate(-25.62 -26.665)" fill="#494949"/>
    </g>
  </g>
</svg>
