<svg xmlns="http://www.w3.org/2000/svg" width="27.143" height="14.739" viewBox="0 0 27.143 14.739">
  <g id="Ordered" transform="translate(-37.39 -183.189)">
    <path id="Path_443" data-name="Path 443" d="M-4494.815-6934c2.812,1.78,6.442,8.012,6.442,8.012s11.221-10.683,12.626-11.151,1.967.047,1.242,1.406-12.861,12.275-13.868,12.162-8.879-8.227-9.146-9.445S-4497.626-6935.78-4494.815-6934Z" transform="translate(4535 7120.703)" fill="#fff"/>
    <path id="Path_444" data-name="Path 444" d="M-4494.815-6934c2.812,1.78,6.442,8.012,6.442,8.012s11.221-10.683,12.626-11.151,1.967.047,1.242,1.406-12.861,12.275-13.868,12.162-8.879-8.227-9.146-9.445S-4497.626-6935.78-4494.815-6934Z" transform="translate(4538.217 7121)" fill="#fff" stroke="#5eb1bf" stroke-width="1"/>
  </g>
</svg>
