<svg xmlns="http://www.w3.org/2000/svg" width="21.66" height="21" viewBox="0 0 21.66 21">
  <g id="noun_order_2046093" transform="translate(-67.578 -81.185)">
    <g id="Group_148" data-name="Group 148" transform="translate(67.578 81.185)">
      <g id="Group_139" data-name="Group 139" transform="translate(0 4.085)">
        <g id="Group_138" data-name="Group 138">
          <path id="Path_266" data-name="Path 266" d="M78.654,264.807l-1.031-.453-2.473-1.089q-1.488-.658-2.978-1.314-1.294-.57-2.586-1.138c-.417-.183-.829-.39-1.253-.553l-.017-.007.241.422v-9.982c0-.461.02-.926,0-1.387v-.02c-.244.141-.49.28-.734.422l1.031.453,2.473,1.089q1.488.658,2.978,1.314,1.294.57,2.586,1.138c.417.183.829.39,1.253.553l.017.007-.241-.422v9.982c0,.463-.012.926,0,1.387v.02a.487.487,0,0,0,.975,0v-9.982c0-.463.012-.926,0-1.387v-.019a.483.483,0,0,0-.241-.422l-1.031-.453-2.473-1.089q-1.488-.658-2.978-1.314-1.294-.57-2.586-1.138c-.417-.185-.836-.37-1.253-.553l-.017-.007a.512.512,0,0,0-.492,0,.491.491,0,0,0-.241.422v9.982c0,.463-.012.926,0,1.387v.02a.483.483,0,0,0,.241.422l1.031.453,2.473,1.089q1.488.658,2.978,1.313,1.294.57,2.586,1.138c.417.185.836.37,1.253.553l.017.007a.5.5,0,0,0,.668-.175A.494.494,0,0,0,78.654,264.807Z" transform="translate(-67.578 -248.802)" fill="#696969"/>
        </g>
      </g>
      <g id="Group_141" data-name="Group 141" transform="translate(10.337 4.085)">
        <g id="Group_140" data-name="Group 140">
          <path id="Path_267" data-name="Path 267" d="M502.362,260.253l-1.031.453-2.473,1.089q-1.488.658-2.978,1.314-1.294.57-2.586,1.138c-.417.183-.843.353-1.253.553l-.017.007c.244.141.49.28.734.422v-9.982c0-.461.02-.926,0-1.387v-.02l-.241.422,1.031-.453,2.473-1.089q1.488-.658,2.978-1.313,1.294-.57,2.586-1.138c.417-.183.843-.353,1.253-.553l.017-.007c-.244-.141-.49-.28-.734-.422v9.982c0,.463-.012.926,0,1.387v.02a.487.487,0,0,0,.975,0v-9.982c0-.463.012-.926,0-1.387v-.019a.491.491,0,0,0-.241-.422.512.512,0,0,0-.492,0l-1.031.453-2.473,1.089q-1.488.658-2.978,1.314-1.294.57-2.586,1.138c-.417.183-.846.348-1.253.553l-.017.007a.477.477,0,0,0-.241.422v9.982c0,.463-.012.926,0,1.387v.02a.491.491,0,0,0,.241.422.512.512,0,0,0,.492,0l1.031-.453,2.473-1.089q1.488-.658,2.978-1.313,1.294-.57,2.586-1.138c.417-.183.846-.348,1.253-.553l.017-.007a.49.49,0,0,0,.175-.668A.5.5,0,0,0,502.362,260.253Z" transform="translate(-491.778 -248.802)" fill="#696969"/>
        </g>
      </g>
      <g id="Group_143" data-name="Group 143" transform="translate(0.011 0)">
        <g id="Group_142" data-name="Group 142">
          <path id="Path_268" data-name="Path 268" d="M88.939,85.333l-1.031.453-2.473,1.089q-1.488.658-2.978,1.313-1.294.57-2.586,1.138c-.417.183-.843.356-1.253.553l-.017.007h.492l-1.031-.453L75.59,88.345q-1.488-.658-2.978-1.313-1.294-.57-2.586-1.138c-.417-.183-.829-.385-1.253-.553l-.017-.007-.117.892,1.031-.407q1.232-.486,2.466-.975l2.983-1.177q1.294-.512,2.588-1.021c.283-.112.565-.222.846-.334.134-.054.275-.1.4-.161l.017-.007h-.258l1.031.407q1.232.486,2.466.975L85.2,84.7q1.294.512,2.588,1.021c.417.163.829.351,1.253.495l.017.007a.487.487,0,0,0,.6-.341.5.5,0,0,0-.341-.6l-1.031-.407L85.805,83.9q-1.5-.592-2.993-1.182L80.232,81.7c-.412-.163-.821-.348-1.24-.49a.552.552,0,0,0-.431.056c-.214.085-.429.171-.643.253l-2.335.921L72.6,83.617q-1.345.53-2.688,1.062c-.49.193-.98.387-1.467.58-.022.01-.044.017-.068.027a.5.5,0,0,0-.348.4.477.477,0,0,0,.232.485c.346.151.692.3,1.036.456l2.486,1.1q1.5.658,2.99,1.318l2.576,1.136c.412.18.824.366,1.236.543a.594.594,0,0,0,.521,0l.134-.058.641-.283q1.166-.515,2.335-1.028l2.975-1.311,2.7-1.189c.492-.217.982-.434,1.474-.648l.068-.029a.49.49,0,0,0,.175-.668A.5.5,0,0,0,88.939,85.333Z" transform="translate(-68.029 -81.185)" fill="#696969"/>
        </g>
      </g>
      <g id="Group_145" data-name="Group 145" transform="translate(15.758 6.226)">
        <g id="Group_144" data-name="Group 144">
          <path id="Path_269" data-name="Path 269" d="M714.2,337.17v3.175a.487.487,0,1,0,.975,0V337.17a.487.487,0,0,0-.975,0Z" transform="translate(-714.2 -336.682)" fill="#696969"/>
        </g>
      </g>
      <g id="Group_147" data-name="Group 147" transform="translate(5.423 1.964)">
        <g id="Group_146" data-name="Group 146">
          <path id="Path_270" data-name="Path 270" d="M290.464,162.737l1.028.424,2.469,1.016,2.988,1.228q1.29.53,2.583,1.063c.417.171.831.366,1.255.517l.017.007a.488.488,0,0,0,.6-.341.5.5,0,0,0-.341-.6l-1.028-.424-2.469-1.016-2.988-1.228q-1.29-.53-2.583-1.062c-.417-.171-.831-.366-1.255-.517l-.017-.007a.488.488,0,0,0-.6.341.5.5,0,0,0,.341.6Z" transform="translate(-290.108 -161.772)" fill="#696969"/>
        </g>
      </g>
    </g>
  </g>
</svg>
