<svg xmlns="http://www.w3.org/2000/svg" width="68.8" height="43.821" viewBox="0 0 68.8 43.821">
  <g id="Personal_details" data-name="Personal details" transform="translate(-57 -705)">
    <path id="Subtraction_1" data-name="Subtraction 1" d="M63.089,43.821H5.71A5.726,5.726,0,0,1,0,38.111V4.866A5.712,5.712,0,0,1,2.725,0h63.35A5.715,5.715,0,0,1,68.8,4.866V38.111a5.718,5.718,0,0,1-5.711,5.71ZM5.557,1.135A3.659,3.659,0,0,0,1.912,4.781V38.2a3.661,3.661,0,0,0,3.645,3.647H63.242A3.662,3.662,0,0,0,66.889,38.2V4.781a3.659,3.659,0,0,0-3.647-3.646H53.511V2.411a4.694,4.694,0,0,1-4.662,4.694H19.982a4.7,4.7,0,0,1-4.694-4.694V1.135Z" transform="translate(57 705)" fill="#747474"/>
    <path id="Path_372" data-name="Path 372" d="M28.819,60.863A12.384,12.384,0,0,0,31.112,54.3a6.024,6.024,0,1,0-12.048,0,12.392,12.392,0,0,0,2.293,6.559A7.713,7.713,0,0,0,15.77,68.24v1.322H34.422V68.24A7.713,7.713,0,0,0,28.819,60.863Zm-3.738-9.938A3.386,3.386,0,0,1,28.46,54.3c0,2.293-1.919,6.215-3.379,6.215S21.7,56.612,21.7,54.3a3.386,3.386,0,0,1,3.379-3.409ZM18.56,66.978a5.076,5.076,0,0,1,4.892-3.746h3.264A5.076,5.076,0,0,1,31.6,66.978Z" transform="translate(49.463 669.284)" fill="#747474"/>
    <path id="Path_373" data-name="Path 373" d="M67.835,68.9H45.918a1.043,1.043,0,0,0,0,2.087H67.835a1.043,1.043,0,0,0,0-2.087Z" transform="translate(42.607 664.427)" fill="#747474"/>
    <path id="Path_374" data-name="Path 374" d="M73.828,60.84H45.918a1.043,1.043,0,0,0,0,2.087h27.91a1.043,1.043,0,1,0,0-2.087Z" transform="translate(42.607 666.325)" fill="#747474"/>
    <path id="Path_375" data-name="Path 375" d="M73.828,52.78H45.918a1.043,1.043,0,0,0,0,2.087h27.91a1.043,1.043,0,1,0,0-2.087Z" transform="translate(42.607 668.224)" fill="#747474"/>
  </g>
</svg>
