<svg xmlns="http://www.w3.org/2000/svg" width="17.309" height="16.85" viewBox="0 0 17.309 16.85">
  <g id="Regular_fit" data-name="Regular fit" transform="translate(53.659 31.655)">
    <path id="Path_307" data-name="Path 307" d="M12.116,21.445l-.137-9.285,1.635,1.687,2.376-2.774-3.447-4L9.226,6.18H6.764l-3.316.89L0,11.072l2.377,2.774,1.635-1.687-.138,9.285Z" transform="translate(-53 -36.751)" fill="none" stroke="#fff" stroke-width="1"/>
    <path id="Path_308" data-name="Path 308" d="M12,13.44l-.018-1.281,1.633,1.687,2.376-2.774-3.444-4L9.226,6.18H6.764l-3.316.89L0,11.072l2.377,2.774,1.635-1.687-.138,9.286h0A7.925,7.925,0,0,0,12,13.44Z" transform="translate(-53 -36.751)" stroke="#fff" stroke-width="1"/>
    <path id="Path_309" data-name="Path 309" d="M93.554,0H96.46l.135.506H93.5Z" transform="translate(-140.007 -31)" fill="none" stroke="#fff" stroke-width="1"/>
    <rect id="Rectangle_315" data-name="Rectangle 315" width="0.558" height="2.036" transform="translate(-45.284 -29.451)" fill="none" stroke="#fff" stroke-width="1"/>
    <path id="Path_310" data-name="Path 310" d="M84.128,0a2.848,2.848,0,0,0-.758.694l1.085,1.577a1.486,1.486,0,0,0,1.12-.723Z" transform="translate(-130.58 -31)" fill="none" stroke="#fff" stroke-width="1"/>
    <path id="Path_311" data-name="Path 311" d="M101.09,7.29h2.09l-1.1,1.042Z" transform="translate(-147.07 -37.784)" fill="none" stroke="#fff" stroke-width="1"/>
    <path id="Path_312" data-name="Path 312" d="M116.759,0a2.836,2.836,0,0,1,.757.694l-1.086,1.577a1.488,1.488,0,0,1-1.119-.723Z" transform="translate(-160.302 -31)" fill="none" stroke="#fff" stroke-width="1"/>
    <path id="Path_313" data-name="Path 313" d="M49.755,24.027a7.965,7.965,0,0,0-.533-5.207l-.046.013-.037.042A7.936,7.936,0,0,1,49.659,24h0l.079-.081v.1Z" transform="translate(-98.727 -48.513)" fill="none" stroke="#fff" stroke-width="1"/>
    <path id="Path_314" data-name="Path 314" d="M169.942,18.851l-.041-.011a7.975,7.975,0,0,0-.531,5.206h.009v-.1l.08.083h.008a7.921,7.921,0,0,1,.517-5.123Z" transform="translate(-210.399 -48.532)" fill="none" stroke="#fff" stroke-width="1"/>
    <path id="Path_315" data-name="Path 315" d="M0,71.828l.309-.358,2.419,2.769-.351.363Z" transform="translate(-53 -97.507)" fill="none" stroke="#fff" stroke-width="1"/>
    <path id="Path_316" data-name="Path 316" d="M193.708,71.828l-.308-.358-2.419,2.769.351.363Z" transform="translate(-230.717 -97.507)" fill="none" stroke="#fff" stroke-width="1"/>
    <path id="Path_408" data-name="Path 408" d="M0,0H8.242V.722H0Z" transform="translate(-49.126 -16.029)" fill="none" stroke="#fff" stroke-width="1" opacity="0.28"/>
    <path id="Path_317" data-name="Path 317" d="M113.278,30.514a.164.164,0,1,1-.164-.164A.164.164,0,0,1,113.278,30.514Z" transform="translate(-158.106 -59.242)" fill="none" stroke="#fff" stroke-width="1"/>
    <path id="Path_318" data-name="Path 318" d="M113.278,41.624a.164.164,0,1,1-.164-.164A.164.164,0,0,1,113.278,41.624Z" transform="translate(-158.106 -69.581)" fill="none" stroke="#fff" stroke-width="1"/>
    <path id="Path_319" data-name="Path 319" d="M55.911,109.29l-.121,8.1h3.547C56.562,116.458,55.911,109.29,55.911,109.29Z" transform="translate(-104.916 -132.7)" fill="none" stroke="#fff" stroke-width="1" opacity="0.04"/>
  </g>
</svg>
