<svg xmlns="http://www.w3.org/2000/svg" width="23.737" height="28.274" viewBox="0 0 23.737 28.274">
  <g id="noun_Out_2028621" transform="translate(-32.822 -49.477)">
    <g id="Group_152" data-name="Group 152" transform="translate(32.822 49.476)">
      <path id="Path_278" data-name="Path 278" d="M74.946,185.112a.2.2,0,0,0-.033.046.365.365,0,0,0-.033.052.284.284,0,0,0-.026.046c-.007.02-.02.033-.026.052s-.013.033-.02.046-.013.033-.02.052-.013.033-.02.052-.007.033-.013.052-.007.039-.013.052a.181.181,0,0,0-.007.059c0,.013-.007.033-.007.046a1.263,1.263,0,0,0,0,.223c0,.02.007.033.007.046s.007.039.007.059.007.039.013.052.007.033.013.052.013.033.02.052.013.033.02.052.013.033.02.046a.2.2,0,0,0,.026.052.282.282,0,0,1,.026.046c.013.02.02.033.033.052s.02.033.033.046.02.026.033.039.046.052.066.079l.007.007,3.813,3.813a1.112,1.112,0,1,0,1.573-1.573l-1.907-1.926H90.416a1.114,1.114,0,0,0,0-2.228H78.53l1.913-1.913a1.112,1.112,0,0,0-1.573-1.573l-3.82,3.813-.007.007a.7.7,0,0,0-.066.079C74.966,185.079,74.959,185.093,74.946,185.112Z" transform="translate(-74.725 -171.635)" fill="#919191"/>
      <path id="Path_279" data-name="Path 279" d="M159.114,32.119a1.076,1.076,0,0,0,1.114-1.036V27.5a1.483,1.483,0,0,1,1.514-1.426h10.824a1.464,1.464,0,0,1,1.487,1.426V48.776a1.464,1.464,0,0,1-1.487,1.426H161.741a1.487,1.487,0,0,1-1.514-1.426V45.192a1.117,1.117,0,0,0-2.228,0v3.584a3.644,3.644,0,0,0,3.741,3.5h10.824a3.62,3.62,0,0,0,3.715-3.5V27.5a3.62,3.62,0,0,0-3.715-3.5H161.741A3.644,3.644,0,0,0,158,27.5v3.584A1.076,1.076,0,0,0,159.114,32.119Z" transform="translate(-152.544 -24)" fill="#919191"/>
    </g>
  </g>
</svg>
