<svg xmlns="http://www.w3.org/2000/svg" width="24.408" height="21.967" viewBox="0 0 24.408 21.967">
  <g id="Upload" transform="translate(-0.001 0)">
    <g id="Group_196" data-name="Group 196" transform="translate(0 0)">
      <path id="Path_418" data-name="Path 418" d="M14.2,3A7.29,7.29,0,0,0,7.027,9.276,6.059,6.059,0,0,0,8.1,21.306h3.664V20.088H8.1A4.878,4.878,0,0,1,7.58,10.36l.5-.052.043-.5a6.1,6.1,0,0,1,12.187.522c0,.184-.011.368-.029.551l-.064.67h.7a4.27,4.27,0,1,1,0,8.54H16.654v1.218h4.262a5.5,5.5,0,0,0,5.492-5.489,5.442,5.442,0,0,0-4.884-5.365c0-.04.007-.082.007-.124A7.336,7.336,0,0,0,14.2,3Zm0,10.121-4.093,4.093.863.863,2.62-2.62v9.511h1.22V15.457l2.62,2.62.863-.863Z" transform="translate(-2 -3)" fill="#fff"/>
    </g>
  </g>
</svg>
