<svg xmlns="http://www.w3.org/2000/svg" width="25.863" height="23.4" viewBox="0 0 25.863 23.4">
  <g id="noun_Wallet_2290422_1_" data-name="noun_Wallet_2290422 (1)" transform="translate(-2 -3)">
    <g id="Group_167" data-name="Group 167" transform="translate(2 3)">
      <path id="Path_325" data-name="Path 325" d="M24.138,7.926V6.695H6.926V7.926H24.138Zm-18.444,0V6.079a.616.616,0,0,1,.616-.616H24.169V4.232H4.925A1.776,1.776,0,0,0,3.232,6.079,1.776,1.776,0,0,0,4.925,7.926ZM3.232,8.59V24.552a.616.616,0,0,0,.616.616H26.016a.616.616,0,0,0,.616-.616v-4.31H17.395a3.079,3.079,0,0,1,0-6.158h9.237V9.837a.7.7,0,0,0-.646-.679H4.925A2.814,2.814,0,0,1,3.232,8.59ZM2,6.079A3,3,0,0,1,4.925,3H24.168A1.232,1.232,0,0,1,25.4,4.232V7.926h.584a1.929,1.929,0,0,1,1.878,1.911V24.552A1.847,1.847,0,0,1,26.016,26.4H3.847A1.847,1.847,0,0,1,2,24.552ZM26.631,19.01V15.316H17.395a1.847,1.847,0,0,0,0,3.695Zm-8.005-.616a1.232,1.232,0,1,1,1.232-1.232A1.232,1.232,0,0,1,18.626,18.395Z" transform="translate(-2 -3)" fill="rgba(116,116,116,0.78)"/>
    </g>
  </g>
</svg>
