<svg xmlns="http://www.w3.org/2000/svg" width="10.287" height="16.644" viewBox="0 0 10.287 16.644"><g transform="translate(-329.654 -515.702)"><g transform="translate(329.655 515.702)"><g transform="translate(0 0)"><path d="M429.772,13.171,433.314,6.8a5.656,5.656,0,0,0,.633-3.8L429,11.845Z" transform="translate(-423.748 -3)" fill="#fff"/><path d="M174.261,17.8c-.139,1.662-.673,2.3-1.979,1.5-1.029-.613-2.375-2.929-2.157-4.136l-.574-1.029a.444.444,0,0,0-.416-.119.379.379,0,0,1-.475-.139L164.7,6.8A5.775,5.775,0,0,1,164.07,3l6.451,11.536c.732-.4,2.137.356,2.691.831A2.928,2.928,0,0,1,174.261,17.8Zm-5.244-4.63.237.336a.18.18,0,0,0,.079-.158.2.2,0,0,0-.2-.218A.167.167,0,0,0,169.017,13.171Zm.2.356-.237-.317a.154.154,0,0,0-.059.139.2.2,0,0,0,.218.2A.119.119,0,0,0,169.215,13.527Zm1.642,1.6c-.554.831.95,3.166,1.682,3.621.89.554,1.029.059,1.108-.97a2.312,2.312,0,0,0-.792-1.9C172.539,15.585,171.214,14.794,170.857,15.13Z" transform="translate(-163.982 -3)" fill="#fff"/><path d="M163.573,541.235c.139,1.662.653,2.3,1.979,1.5,1.009-.613,2.375-2.929,2.137-4.136l.534-.93-.376-.673-.554.97c-.712-.4-2.117.356-2.671.831A2.928,2.928,0,0,0,163.573,541.235ZM167,538.563c.554.831-.97,3.166-1.7,3.621-.89.554-1.009.059-1.108-.97a2.328,2.328,0,0,1,.811-1.9C165.294,539.018,166.62,538.227,167,538.563Z" transform="translate(-163.564 -526.433)" fill="#fff"/></g></g></g></svg>